<?xml version="1.0" encoding="UTF-8" standalone="no"?>
<!DOCTYPE svg PUBLIC "-//W3C//DTD SVG 1.1//EN" "http://www.w3.org/Graphics/SVG/1.1/DTD/svg11.dtd">
<svg xmlns:dc="http://purl.org/dc/elements/1.1/" xmlns:xl="http://www.w3.org/1999/xlink" version="1.1" xmlns="http://www.w3.org/2000/svg" viewBox="-60 -161 101 162" width="101" height="162">
  <defs>
    <marker orient="auto" overflow="visible" markerUnits="strokeWidth" id="StickArrow_Marker" stroke-linejoin="miter" stroke-miterlimit="10" viewBox="-1 -3 7 6" markerWidth="7" markerHeight="6" color="#ef5ba1">
      <g>
        <path d="M 4.8 0 L 0 0 M 0 -1.8 L 4.8 0 L 0 1.8" fill="none" stroke="currentColor" stroke-width="1"/>
      </g>
    </marker>
    <marker orient="auto" overflow="visible" markerUnits="strokeWidth" id="UMLInheritance_Marker" stroke-linejoin="miter" stroke-miterlimit="10" viewBox="-1 -6 10 12" markerWidth="10" markerHeight="12" color="black">
      <g>
        <path d="M 7.2 0 L 0 -4.2 L 0 4.2 Z" fill="none" stroke="currentColor" stroke-width="1"/>
      </g>
    </marker>
  </defs>
  <metadata> Produced by OmniGraffle 7.8.1 
    <dc:date>2017-11-25 15:46:24 +0000</dc:date>
  </metadata>
  <g id="Canvas_1" fill-opacity="1" stroke-dasharray="none" stroke="none" stroke-opacity="1" fill="none">
    <title>Canvas 1</title>
    <rect fill="white" x="-60" y="-161" width="101" height="162"/>
    <g id="Canvas_1: Layer 1">
      <title>Layer 1</title>
      <g id="Graphic_9">
        <rect x="-40" y="-160" width="80" height="60" stroke="black" stroke-linecap="round" stroke-linejoin="round" stroke-width="2"/>
      </g>
      <g id="Line_8">
        <path d="M -40 -120 C -62.93079 -116.1782 -62.49175 -77.30165 -50.96366 -48.474325" marker-end="url(#StickArrow_Marker)" stroke="#ef5ba1" stroke-linecap="round" stroke-linejoin="round" stroke-width="2"/>
      </g>
      <g id="Graphic_7">
        <rect x="-40" y="-60" width="80" height="60" stroke="black" stroke-linecap="round" stroke-linejoin="round" stroke-width="2"/>
      </g>
      <g id="Line_6">
        <line x1="-40" y1="-45" x2="40" y2="-45" stroke="black" stroke-linecap="round" stroke-linejoin="round" stroke-width="2"/>
      </g>
      <g id="Line_5">
        <line x1="-40" y1="-145" x2="40" y2="-145" stroke="black" stroke-linecap="round" stroke-linejoin="round" stroke-width="2"/>
      </g>
      <g id="Line_4">
        <line x1="0" y1="-60" x2="0" y2="-82.6" marker-end="url(#UMLInheritance_Marker)" stroke="black" stroke-linecap="round" stroke-linejoin="round" stroke-width="2"/>
      </g>
      <g id="Graphic_3">
        <path d="M -37.5 -37 C -33.125 -37 -20 -37 -20 -26 C -20 -15 -33.125 -15 -37.5 -15 C -41.875 -15 -37.5 -15 -37.5 -15 C -40.398 -15 -55 -15 -55 -26 C -55 -37 -41.875 -37 -37.5 -37 Z" fill="white"/>
        <path d="M -37.5 -37 C -33.125 -37 -20 -37 -20 -26 C -20 -15 -33.125 -15 -37.5 -15 C -41.875 -15 -37.5 -15 -37.5 -15 C -40.398 -15 -55 -15 -55 -26 C -55 -37 -41.875 -37 -37.5 -37 Z" stroke="#26bdcf" stroke-linecap="round" stroke-linejoin="round" stroke-width="2"/>
      </g>
    </g>
  </g>
</svg>
