<?xml version="1.0" encoding="UTF-8" standalone="no"?>
<!DOCTYPE svg PUBLIC "-//W3C//DTD SVG 1.1//EN" "http://www.w3.org/Graphics/SVG/1.1/DTD/svg11.dtd">
<svg xmlns:dc="http://purl.org/dc/elements/1.1/" xmlns:xl="http://www.w3.org/1999/xlink" version="1.1" xmlns="http://www.w3.org/2000/svg" viewBox="-526 -221 142 167" width="142" height="167">
  <defs>
    <marker orient="auto" overflow="visible" markerUnits="strokeWidth" id="StickArrow_Marker" stroke-linejoin="miter" stroke-miterlimit="10" viewBox="-1 -3 7 6" markerWidth="7" markerHeight="6" color="#808285">
      <g>
        <path d="M 4.8 0 L 0 0 M 0 -1.8 L 4.8 0 L 0 1.8" fill="none" stroke="currentColor" stroke-width="1"/>
      </g>
    </marker>
    <marker orient="auto" overflow="visible" markerUnits="strokeWidth" id="StickArrow_Marker_2" stroke-linejoin="miter" stroke-miterlimit="10" viewBox="-1 -3 7 6" markerWidth="7" markerHeight="6" color="#ef5ba1">
      <g>
        <path d="M 4.8 0 L 0 0 M 0 -1.8 L 4.8 0 L 0 1.8" fill="none" stroke="currentColor" stroke-width="1"/>
      </g>
    </marker>
    <marker orient="auto" overflow="visible" markerUnits="strokeWidth" id="StickArrow_Marker_3" stroke-linejoin="miter" stroke-miterlimit="10" viewBox="-1 -3 7 6" markerWidth="7" markerHeight="6" color="#26bdcf">
      <g>
        <path d="M 4.8 0 L 0 0 M 0 -1.8 L 4.8 0 L 0 1.8" fill="none" stroke="currentColor" stroke-width="1"/>
      </g>
    </marker>
  </defs>
  <metadata> Produced by OmniGraffle 7.8.1 
    <dc:date>2017-11-10 15:03:10 +0000</dc:date>
  </metadata>
  <g id="Canvas_1" fill-opacity="1" stroke-dasharray="none" stroke="none" stroke-opacity="1" fill="none">
    <title>Canvas 1</title>
    <rect fill="white" x="-526" y="-221" width="142" height="167"/>
    <g id="Canvas_1: Layer 1">
      <title>Layer 1</title>
      <g id="Graphic_20">
        <path d="M -510 -150 C -513.75 -150 -525 -150 -525 -140 C -525 -130 -513.75 -130 -510 -130 C -506.25 -130 -510 -130 -510 -130 C -507.516 -130 -495 -130 -495 -140 C -495 -150 -506.25 -150 -510 -150 Z" fill="white"/>
        <path d="M -510 -150 C -513.75 -150 -525 -150 -525 -140 C -525 -130 -513.75 -130 -510 -130 C -506.25 -130 -510 -130 -510 -130 C -507.516 -130 -495 -130 -495 -140 C -495 -150 -506.25 -150 -510 -150 Z" stroke="#808285" stroke-linecap="round" stroke-linejoin="round" stroke-width="2"/>
      </g>
      <g id="Graphic_21">
        <path d="M -445.5 -155 L -431 -140.5 L -445.5 -126 L -460 -140.5 Z" fill="white"/>
        <path d="M -445.5 -155 L -431 -140.5 L -445.5 -126 L -460 -140.5 Z" stroke="#808285" stroke-linecap="round" stroke-linejoin="round" stroke-width="2"/>
      </g>
      <g id="Graphic_22">
        <rect x="-408" y="-175" width="16" height="15" fill="black"/>
      </g>
      <g id="Graphic_23">
        <path d="M -400 -117 L -392 -109.5 L -400 -102 L -408 -109.5 Z" fill="black"/>
      </g>
      <g id="Line_26">
        <path d="M -445.5 -155 L -445.5 -167.6914 L -426.9 -167.5 L -420.9 -167.5" marker-end="url(#StickArrow_Marker)" stroke="#808285" stroke-linecap="round" stroke-linejoin="round" stroke-width="2"/>
      </g>
      <g id="Line_27">
        <path d="M -445.5 -126 L -445.5 -115 L -446.33594 -115 L -446.33594 -109.46875 L -426.9 -109.5 L -420.9 -109.5" marker-end="url(#StickArrow_Marker)" stroke="#808285" stroke-linecap="round" stroke-linejoin="round" stroke-width="2"/>
      </g>
      <g id="Line_33">
        <line x1="-495.0005" y1="-140.11628" x2="-473.48974" y2="-140.28303" marker-end="url(#StickArrow_Marker)" stroke="#808285" stroke-linecap="round" stroke-linejoin="round" stroke-width="2"/>
      </g>
      <g id="Graphic_34">
        <path d="M -400 -220 C -403.75 -220 -415 -220 -415 -210 C -415 -200 -403.75 -200 -400 -200 C -396.25 -200 -400 -200 -400 -200 C -397.516 -200 -385 -200 -385 -210 C -385 -220 -396.25 -220 -400 -220 Z" fill="white"/>
        <path d="M -400 -220 C -403.75 -220 -415 -220 -415 -210 C -415 -200 -403.75 -200 -400 -200 C -396.25 -200 -400 -200 -400 -200 C -397.516 -200 -385 -200 -385 -210 C -385 -220 -396.25 -220 -400 -220 Z" stroke="#26bdcf" stroke-linecap="round" stroke-linejoin="round" stroke-width="2"/>
      </g>
      <g id="Graphic_35">
        <path d="M -400 -75 C -403.75 -75 -415 -75 -415 -65 C -415 -55 -403.75 -55 -400 -55 C -396.25 -55 -400 -55 -400 -55 C -397.516 -55 -385 -55 -385 -65 C -385 -75 -396.25 -75 -400 -75 Z" stroke="#26bdcf" stroke-linecap="round" stroke-linejoin="round" stroke-width="2"/>
      </g>
      <g id="Line_36">
        <path d="M -455 -70 C -446.37376 -73.07325 -437.1998 -76.0896 -425.75817 -74.66634" marker-end="url(#StickArrow_Marker_2)" stroke="#ef5ba1" stroke-linecap="round" stroke-linejoin="round" stroke-width="2"/>
      </g>
      <g id="Line_37">
        <path d="M -460 -210 C -450.62326 -203.47204 -440.59934 -199.04104 -426.2954 -201.0449" marker-end="url(#StickArrow_Marker_2)" stroke="#ef5ba1" stroke-linecap="round" stroke-linejoin="round" stroke-width="2"/>
      </g>
      <g id="Line_38">
        <line x1="-400" y1="-75" x2="-400" y2="-89.1" marker-end="url(#StickArrow_Marker_3)" stroke="#26bdcf" stroke-linecap="round" stroke-linejoin="round" stroke-width="2"/>
      </g>
      <g id="Line_39">
        <line x1="-400" y1="-200" x2="-400" y2="-187.9" marker-end="url(#StickArrow_Marker_3)" stroke="#26bdcf" stroke-linecap="round" stroke-linejoin="round" stroke-width="2"/>
      </g>
    </g>
  </g>
</svg>
