<?xml version="1.0" encoding="UTF-8" standalone="no"?>
<!DOCTYPE svg PUBLIC "-//W3C//DTD SVG 1.1//EN" "http://www.w3.org/Graphics/SVG/1.1/DTD/svg11.dtd">
<svg xmlns:dc="http://purl.org/dc/elements/1.1/" xmlns:xl="http://www.w3.org/1999/xlink" version="1.1" xmlns="http://www.w3.org/2000/svg" viewBox="-566 -28 248 74" width="248" height="74">
  <defs>
    <marker orient="auto" overflow="visible" markerUnits="strokeWidth" id="StickArrow_Marker" stroke-linejoin="miter" stroke-miterlimit="10" viewBox="-1 -3 7 6" markerWidth="7" markerHeight="6" color="#ef5ba1">
      <g>
        <path d="M 4.8 0 L 0 0 M 0 -1.8 L 4.8 0 L 0 1.8" fill="none" stroke="currentColor" stroke-width="1"/>
      </g>
    </marker>
    <marker orient="auto" overflow="visible" markerUnits="strokeWidth" id="StickArrow_Marker_2" stroke-linejoin="miter" stroke-miterlimit="10" viewBox="-1 -3 7 6" markerWidth="7" markerHeight="6" color="#808285">
      <g>
        <path d="M 4.8 0 L 0 0 M 0 -1.8 L 4.8 0 L 0 1.8" fill="none" stroke="currentColor" stroke-width="1"/>
      </g>
    </marker>
    <marker orient="auto" overflow="visible" markerUnits="strokeWidth" id="StickArrow_Marker_3" stroke-linejoin="miter" stroke-miterlimit="10" viewBox="-1 -3 7 6" markerWidth="7" markerHeight="6" color="#26bdcf">
      <g>
        <path d="M 4.8 0 L 0 0 M 0 -1.8 L 4.8 0 L 0 1.8" fill="none" stroke="currentColor" stroke-width="1"/>
      </g>
    </marker>
  </defs>
  <metadata> Produced by OmniGraffle 7.8.1 
    <dc:date>2017-12-28 17:40:38 +0000</dc:date>
  </metadata>
  <g id="Canvas_1" fill-opacity="1" stroke-dasharray="none" stroke="none" stroke-opacity="1" fill="none">
    <title>Canvas 1</title>
    <rect fill="white" x="-566" y="-28" width="248" height="74"/>
    <g id="Canvas_1: Layer 1">
      <title>Layer 1</title>
      <g id="Graphic_18">
        <rect x="-470" y="-26.153846" width="40" height="21.763222" fill="white"/>
        <rect x="-470" y="-26.153846" width="40" height="21.763222" stroke="#808285" stroke-linecap="round" stroke-linejoin="round" stroke-width="2"/>
      </g>
      <g id="Graphic_17">
        <path d="M -545 25 C -541.25 25 -530 25 -530 32.5 C -530 40 -541.25 40 -545 40 C -548.75 40 -545 40 -545 40 C -547.484 40 -560 40 -560 32.5 C -560 25 -548.75 25 -545 25 Z" fill="white"/>
        <path d="M -545 25 C -541.25 25 -530 25 -530 32.5 C -530 40 -541.25 40 -545 40 C -548.75 40 -545 40 -545 40 C -547.484 40 -560 40 -560 32.5 C -560 25 -548.75 25 -545 25 Z" stroke="#26bdcf" stroke-linecap="round" stroke-linejoin="round" stroke-width="2"/>
      </g>
      <g id="Line_16">
        <path d="M -405 0 C -412.3164 7.316406 -416.9563 12.450444 -418.91975 22.15047" marker-end="url(#StickArrow_Marker)" stroke="#ef5ba1" stroke-linecap="round" stroke-linejoin="round" stroke-width="2"/>
      </g>
      <g id="Group_6">
        <g id="Line_15">
          <line x1="-319.23077" y1="0" x2="-350" y2="0" stroke="black" stroke-linecap="round" stroke-linejoin="round" stroke-width="2"/>
        </g>
        <g id="Line_14">
          <line x1="-319.23077" y1="5.3846154" x2="-350" y2="5.3846154" stroke="black" stroke-linecap="round" stroke-linejoin="round" stroke-width="2"/>
        </g>
        <g id="Line_13">
          <line x1="-319.23077" y1="10.769231" x2="-350" y2="10.769231" stroke="black" stroke-linecap="round" stroke-linejoin="round" stroke-width="2"/>
        </g>
        <g id="Line_12">
          <line x1="-325.3846" y1="16.153846" x2="-350" y2="16.153846" stroke="black" stroke-linecap="round" stroke-linejoin="round" stroke-width="2"/>
        </g>
        <g id="Line_11">
          <line x1="-325.3846" y1="21.538462" x2="-350" y2="21.538462" stroke="black" stroke-linecap="round" stroke-linejoin="round" stroke-width="2"/>
        </g>
        <g id="Line_10">
          <line x1="-319.23077" y1="26.923077" x2="-350" y2="26.923077" stroke="black" stroke-linecap="round" stroke-linejoin="round" stroke-width="2"/>
        </g>
        <g id="Line_9">
          <line x1="-319.23077" y1="32.307692" x2="-350" y2="32.307692" stroke="black" stroke-linecap="round" stroke-linejoin="round" stroke-width="2"/>
        </g>
        <g id="Line_8">
          <line x1="-325.3846" y1="37.692308" x2="-350" y2="37.692308" stroke="black" stroke-linecap="round" stroke-linejoin="round" stroke-width="2"/>
        </g>
        <g id="Line_7">
          <line x1="-319.23077" y1="43.076923" x2="-350" y2="43.076923" stroke="black" stroke-linecap="round" stroke-linejoin="round" stroke-width="2"/>
        </g>
      </g>
      <g id="Line_5">
        <line x1="-360" y1="5" x2="-416.9153" y2="-7.820004" marker-end="url(#StickArrow_Marker_2)" stroke="#808285" stroke-linecap="round" stroke-linejoin="round" stroke-width="2"/>
      </g>
      <g id="Line_4">
        <line x1="-355" y1="35" x2="-516.60364" y2="32.873636" marker-end="url(#StickArrow_Marker_3)" stroke="#26bdcf" stroke-linecap="round" stroke-linejoin="round" stroke-width="2"/>
      </g>
      <g id="Line_3">
        <line x1="-545" y1="25" x2="-545" y2="8.4" marker-end="url(#StickArrow_Marker_3)" stroke="#26bdcf" stroke-linecap="round" stroke-linejoin="round" stroke-width="2"/>
      </g>
      <g id="Graphic_19">
        <rect x="-565" y="-26.763222" width="40" height="21.763222" fill="white"/>
        <rect x="-565" y="-26.763222" width="40" height="21.763222" stroke="black" stroke-linecap="round" stroke-linejoin="round" stroke-width="2"/>
      </g>
      <g id="Line_20">
        <line x1="-470" y1="-15.400525" x2="-511.60027" y2="-15.667369" marker-end="url(#StickArrow_Marker_2)" stroke="#808285" stroke-linecap="round" stroke-linejoin="round" stroke-dasharray="8.0,8.0" stroke-width="2"/>
      </g>
    </g>
  </g>
</svg>
