<?xml version="1.0" encoding="UTF-8" standalone="no"?>
<!DOCTYPE svg PUBLIC "-//W3C//DTD SVG 1.1//EN" "http://www.w3.org/Graphics/SVG/1.1/DTD/svg11.dtd">
<svg xmlns:dc="http://purl.org/dc/elements/1.1/" xmlns:xl="http://www.w3.org/1999/xlink" version="1.1" xmlns="http://www.w3.org/2000/svg" viewBox="-566 -241 317 159" width="317" height="159">
  <defs>
    <marker orient="auto" overflow="visible" markerUnits="strokeWidth" id="StickArrow_Marker" stroke-linejoin="miter" stroke-miterlimit="10" viewBox="-1 -3 7 6" markerWidth="7" markerHeight="6" color="#808285">
      <g>
        <path d="M 4.8 0 L 0 0 M 0 -1.8 L 4.8 0 L 0 1.8" fill="none" stroke="currentColor" stroke-width="1"/>
      </g>
    </marker>
    <marker orient="auto" overflow="visible" markerUnits="strokeWidth" id="UMLInheritance_Marker" stroke-linejoin="miter" stroke-miterlimit="10" viewBox="-1 -6 10 12" markerWidth="10" markerHeight="12" color="#26bdcf">
      <g>
        <path d="M 7.2 0 L 0 -4.2 L 0 4.2 Z" fill="none" stroke="currentColor" stroke-width="1"/>
      </g>
    </marker>
    <marker orient="auto" overflow="visible" markerUnits="strokeWidth" id="StickArrow_Marker_2" stroke-linejoin="miter" stroke-miterlimit="10" viewBox="-1 -3 7 6" markerWidth="7" markerHeight="6" color="#26bdcf">
      <g>
        <path d="M 4.8 0 L 0 0 M 0 -1.8 L 4.8 0 L 0 1.8" fill="none" stroke="currentColor" stroke-width="1"/>
      </g>
    </marker>
    <marker orient="auto" overflow="visible" markerUnits="strokeWidth" id="StickArrow_Marker_3" stroke-linejoin="miter" stroke-miterlimit="10" viewBox="-1 -3 7 6" markerWidth="7" markerHeight="6" color="#ef5ba1">
      <g>
        <path d="M 4.8 0 L 0 0 M 0 -1.8 L 4.8 0 L 0 1.8" fill="none" stroke="currentColor" stroke-width="1"/>
      </g>
    </marker>
  </defs>
  <metadata> Produced by OmniGraffle 7.8.1 
    <dc:date>2017-11-10 18:22:38 +0000</dc:date>
  </metadata>
  <g id="Canvas_1" fill-opacity="1" stroke-dasharray="none" stroke="none" stroke-opacity="1" fill="none">
    <title>Canvas 1</title>
    <rect fill="white" x="-566" y="-241" width="317" height="159"/>
    <g id="Canvas_1: Layer 1">
      <title>Layer 1</title>
      <g id="Graphic_14">
        <path d="M -550.5 -160 L -536 -145.5 L -550.5 -131 L -565 -145.5 Z" fill="white"/>
        <path d="M -550.5 -160 L -536 -145.5 L -550.5 -131 L -565 -145.5 Z" stroke="#808285" stroke-linecap="round" stroke-linejoin="round" stroke-width="2"/>
      </g>
      <g id="Graphic_13">
        <rect x="-513" y="-180" width="16" height="15" fill="#808285"/>
      </g>
      <g id="Graphic_12">
        <path d="M -505 -122 L -497 -114.5 L -505 -107 L -513 -114.5 Z" fill="#808285"/>
      </g>
      <g id="Line_11">
        <path d="M -550.5 -160 L -550.5 -172.6914 L -531.9 -172.5 L -525.9 -172.5" marker-end="url(#StickArrow_Marker)" stroke="#808285" stroke-linecap="round" stroke-linejoin="round" stroke-width="2"/>
      </g>
      <g id="Line_10">
        <path d="M -550.5 -131 L -550.5 -120 L -551.33594 -120 L -551.33594 -114.46875 L -531.9 -114.5 L -525.9 -114.5" marker-end="url(#StickArrow_Marker)" stroke="#808285" stroke-linecap="round" stroke-linejoin="round" stroke-width="2"/>
      </g>
      <g id="Graphic_16">
        <rect x="-385" y="-240" width="74" height="40" stroke="#26bdcf" stroke-linecap="round" stroke-linejoin="round" stroke-width="2"/>
      </g>
      <g id="Line_17">
        <path d="M -398 -140 L -398 -160 L -348 -160 L -348 -182.6" marker-end="url(#UMLInheritance_Marker)" stroke="#26bdcf" stroke-linecap="round" stroke-linejoin="round" stroke-width="2"/>
      </g>
      <g id="Graphic_18">
        <rect x="-435" y="-140" width="74" height="40" stroke="#26bdcf" stroke-linecap="round" stroke-linejoin="round" stroke-width="2"/>
      </g>
      <g id="Graphic_20">
        <path d="M -310 -232 C -306.25 -232 -295 -232 -295 -223.5 C -295 -215 -306.25 -215 -310 -215 C -313.75 -215 -310 -215 -310 -215 C -312.484 -215 -325 -215 -325 -223.5 C -325 -232 -313.75 -232 -310 -232 Z" fill="white"/>
        <path d="M -310 -232 C -306.25 -232 -295 -232 -295 -223.5 C -295 -215 -306.25 -215 -310 -215 C -313.75 -215 -310 -215 -310 -215 C -312.484 -215 -325 -215 -325 -223.5 C -325 -232 -313.75 -232 -310 -232 Z" stroke="#26bdcf" stroke-linecap="round" stroke-linejoin="round" stroke-width="2"/>
      </g>
      <g id="Graphic_21">
        <path d="M -360 -132 C -356.25 -132 -345 -132 -345 -123.5 C -345 -115 -356.25 -115 -360 -115 C -363.75 -115 -360 -115 -360 -115 C -362.484 -115 -375 -115 -375 -123.5 C -375 -132 -363.75 -132 -360 -132 Z" fill="white"/>
        <path d="M -360 -132 C -356.25 -132 -345 -132 -345 -123.5 C -345 -115 -356.25 -115 -360 -115 C -363.75 -115 -360 -115 -360 -115 C -362.484 -115 -375 -115 -375 -123.5 C -375 -132 -363.75 -132 -360 -132 Z" stroke="#26bdcf" stroke-linecap="round" stroke-linejoin="round" stroke-width="2"/>
      </g>
      <g id="Line_38">
        <line x1="-375" y1="-123.5" x2="-387.1" y2="-123.5" marker-end="url(#StickArrow_Marker_2)" stroke="#26bdcf" stroke-linecap="round" stroke-linejoin="round" stroke-width="2"/>
      </g>
      <g id="Graphic_32">
        <rect x="-340" y="-140" width="74" height="40" stroke="#26bdcf" stroke-linecap="round" stroke-linejoin="round" stroke-width="2"/>
      </g>
      <g id="Line_36">
        <path d="M -303 -140 L -303 -160 L -348 -160 L -348 -182.6" marker-end="url(#UMLInheritance_Marker)" stroke="#26bdcf" stroke-linecap="round" stroke-linejoin="round" stroke-width="2"/>
      </g>
      <g id="Group_43">
        <g id="Graphic_42">
          <path d="M -265 -132 C -261.25 -132 -250 -132 -250 -123.5 C -250 -115 -261.25 -115 -265 -115 C -268.75 -115 -265 -115 -265 -115 C -267.484 -115 -280 -115 -280 -123.5 C -280 -132 -268.75 -132 -265 -132 Z" fill="white"/>
          <path d="M -265 -132 C -261.25 -132 -250 -132 -250 -123.5 C -250 -115 -261.25 -115 -265 -115 C -268.75 -115 -265 -115 -265 -115 C -267.484 -115 -280 -115 -280 -123.5 C -280 -132 -268.75 -132 -265 -132 Z" stroke="#26bdcf" stroke-linecap="round" stroke-linejoin="round" stroke-width="2"/>
        </g>
        <g id="Line_41">
          <line x1="-280" y1="-123.5" x2="-292.1" y2="-123.5" marker-end="url(#StickArrow_Marker_2)" stroke="#26bdcf" stroke-linecap="round" stroke-linejoin="round" stroke-width="2"/>
        </g>
      </g>
      <g id="Line_46">
        <path d="M -505 -107 C -472.44727 -81.88789 -349.06477 -67.156325 -311.85566 -111.07889" marker-end="url(#StickArrow_Marker_3)" stroke="#ef5ba1" stroke-linecap="round" stroke-linejoin="round" stroke-width="2"/>
      </g>
      <g id="Line_47">
        <path d="M -497 -172.7578 C -439.87997 -174.36971 -422.623 -169.2711 -409.1889 -134.19958" marker-end="url(#StickArrow_Marker_3)" stroke="#ef5ba1" stroke-linecap="round" stroke-linejoin="round" stroke-width="2"/>
      </g>
    </g>
  </g>
</svg>
