<?xml version="1.0" encoding="UTF-8" standalone="no"?>
<!DOCTYPE svg PUBLIC "-//W3C//DTD SVG 1.1//EN" "http://www.w3.org/Graphics/SVG/1.1/DTD/svg11.dtd">
<svg xmlns:dc="http://purl.org/dc/elements/1.1/" xmlns:xl="http://www.w3.org/1999/xlink" version="1.1" xmlns="http://www.w3.org/2000/svg" viewBox="-805 -126 346 113" width="346" height="113">
  <defs>
    <marker orient="auto" overflow="visible" markerUnits="strokeWidth" id="SharpArrow_Marker" stroke-linejoin="miter" stroke-miterlimit="10" viewBox="-3 -3 6 6" markerWidth="6" markerHeight="6" color="black">
      <g>
        <path d="M 2 0 L -1.2 -1.2 L 0 0 L 0 0 L -1.2 1.2 Z" fill="currentColor" stroke="currentColor" stroke-width="1"/>
      </g>
    </marker>
    <marker orient="auto" overflow="visible" markerUnits="strokeWidth" id="StickArrow_Marker" stroke-linejoin="miter" stroke-miterlimit="10" viewBox="-1 -3 7 6" markerWidth="7" markerHeight="6" color="#ef5ba1">
      <g>
        <path d="M 4.8 0 L 0 0 M 0 -1.8 L 4.8 0 L 0 1.8" fill="none" stroke="currentColor" stroke-width="1"/>
      </g>
    </marker>
    <marker orient="auto" overflow="visible" markerUnits="strokeWidth" id="SharpArrow_Marker_2" stroke-linejoin="miter" stroke-miterlimit="10" viewBox="-3 -3 6 6" markerWidth="6" markerHeight="6" color="#26bdcf">
      <g>
        <path d="M 2 0 L -1.2 -1.2 L 0 0 L 0 0 L -1.2 1.2 Z" fill="currentColor" stroke="currentColor" stroke-width="1"/>
      </g>
    </marker>
    <marker orient="auto" overflow="visible" markerUnits="strokeWidth" id="SharpArrow_Marker_3" stroke-linejoin="miter" stroke-miterlimit="10" viewBox="-3 -3 6 6" markerWidth="6" markerHeight="6" color="#26bdcf">
      <g>
        <path d="M 2 0 L -1.2 -1.2 L 0 0 L 0 0 L -1.2 1.2 Z" fill="currentColor" stroke="currentColor" stroke-width="1"/>
      </g>
    </marker>
  </defs>
  <metadata> Produced by OmniGraffle 7.8.1 
    <dc:date>2017-11-13 15:38:19 +0000</dc:date>
  </metadata>
  <g id="Canvas_1" fill-opacity="1" stroke-dasharray="none" stroke="none" stroke-opacity="1" fill="none">
    <title>Canvas 1</title>
    <rect fill="white" x="-805" y="-126" width="346" height="113"/>
    <g id="Canvas_1: Layer 1">
      <title>Layer 1</title>
      <g id="Graphic_8">
        <rect x="-795" y="-120" width="125" height="10" fill="black"/>
      </g>
      <g id="Line_6">
        <path d="M -715 -15 L -795 -15 L -795 -90.9" marker-end="url(#SharpArrow_Marker)" stroke="black" stroke-linecap="round" stroke-linejoin="round" stroke-width="4"/>
      </g>
      <g id="Line_3">
        <path d="M -705 -74.15837 C -662.9829 -73.00448 -613.4746 -72.64481 -596.15896 -88.66944" marker-end="url(#StickArrow_Marker)" stroke="#ef5ba1" stroke-linecap="round" stroke-linejoin="round" stroke-width="2"/>
      </g>
      <g id="Graphic_13">
        <path d="M -590 -125 C -585 -125 -570 -125 -570 -115 C -570 -105 -585 -105 -590 -105 C -595 -105 -590 -105 -590 -105 C -593.312 -105 -610 -105 -610 -115 C -610 -125 -595 -125 -590 -125 Z" fill="white"/>
        <path d="M -590 -125 C -585 -125 -570 -125 -570 -115 C -570 -105 -585 -105 -590 -105 C -595 -105 -590 -105 -590 -105 C -593.312 -105 -610 -105 -610 -115 C -610 -125 -595 -125 -590 -125 Z" stroke="#26bdcf" stroke-linecap="round" stroke-linejoin="round" stroke-width="2"/>
      </g>
      <g id="Line_14">
        <line x1="-555" y1="-115" x2="-529.1" y2="-115" marker-end="url(#SharpArrow_Marker_2)" stroke="#26bdcf" stroke-linecap="round" stroke-linejoin="round" stroke-width="4"/>
      </g>
      <g id="Graphic_15">
        <path d="M -480 -125 C -475 -125 -460 -125 -460 -115 C -460 -105 -475 -105 -480 -105 C -485 -105 -480 -105 -480 -105 C -483.312 -105 -500 -105 -500 -115 C -500 -125 -485 -125 -480 -125 Z" fill="white"/>
        <path d="M -480 -125 C -475 -125 -460 -125 -460 -115 C -460 -105 -475 -105 -480 -105 C -485 -105 -480 -105 -480 -105 C -483.312 -105 -500 -105 -500 -115 C -500 -125 -485 -125 -480 -125 Z" stroke="#26bdcf" stroke-linecap="round" stroke-linejoin="round" stroke-width="2"/>
      </g>
      <g id="Line_16">
        <path d="M -690 -46.805093 C -625.3982 -51.72744 -516.81294 -66.56542 -487.4257 -89.45263" marker-end="url(#StickArrow_Marker)" stroke="#ef5ba1" stroke-linecap="round" stroke-linejoin="round" stroke-width="2"/>
      </g>
      <g id="Graphic_17">
        <rect x="-780" y="-80" width="75" height="10" fill="#808285"/>
      </g>
      <g id="Graphic_18">
        <rect x="-765" y="-50" width="75" height="10" fill="#808285"/>
      </g>
      <g id="Line_22">
        <line x1="-660" y1="-115" x2="-634.1" y2="-115" marker-end="url(#SharpArrow_Marker_3)" stroke="#26bdcf" stroke-linecap="round" stroke-linejoin="round" stroke-width="4"/>
      </g>
    </g>
  </g>
</svg>
