<?xml version="1.0" encoding="UTF-8" standalone="no"?>
<!DOCTYPE svg PUBLIC "-//W3C//DTD SVG 1.1//EN" "http://www.w3.org/Graphics/SVG/1.1/DTD/svg11.dtd">
<svg xmlns:dc="http://purl.org/dc/elements/1.1/" xmlns:xl="http://www.w3.org/1999/xlink" version="1.1" xmlns="http://www.w3.org/2000/svg" viewBox="-966 -176 282 142" width="282" height="142">
  <defs>
    <marker orient="auto" overflow="visible" markerUnits="strokeWidth" id="StickArrow_Marker" stroke-linejoin="miter" stroke-miterlimit="10" viewBox="-1 -3 7 6" markerWidth="7" markerHeight="6" color="#ef5ba1">
      <g>
        <path d="M 4.8 0 L 0 0 M 0 -1.8 L 4.8 0 L 0 1.8" fill="none" stroke="currentColor" stroke-width="1"/>
      </g>
    </marker>
    <marker orient="auto" overflow="visible" markerUnits="strokeWidth" id="UMLInheritance_Marker" stroke-linejoin="miter" stroke-miterlimit="10" viewBox="-1 -6 10 12" markerWidth="10" markerHeight="12" color="#808285">
      <g>
        <path d="M 7.2 0 L 0 -4.2 L 0 4.2 Z" fill="none" stroke="currentColor" stroke-width="1"/>
      </g>
    </marker>
    <marker orient="auto" overflow="visible" markerUnits="strokeWidth" id="StickArrow_Marker_2" stroke-linejoin="miter" stroke-miterlimit="10" viewBox="-1 -3 7 6" markerWidth="7" markerHeight="6" color="#26bdcf">
      <g>
        <path d="M 4.8 0 L 0 0 M 0 -1.8 L 4.8 0 L 0 1.8" fill="none" stroke="currentColor" stroke-width="1"/>
      </g>
    </marker>
  </defs>
  <metadata> Produced by OmniGraffle 7.8.1 
    <dc:date>2017-11-15 14:41:03 +0000</dc:date>
  </metadata>
  <g id="Canvas_1" fill-opacity="1" stroke-dasharray="none" stroke="none" stroke-opacity="1" fill="none">
    <title>Canvas 1</title>
    <rect fill="white" x="-966" y="-176" width="282" height="142"/>
    <g id="Canvas_1: Layer 1">
      <title>Layer 1</title>
      <g id="Line_3">
        <path d="M -925.0003 -63.91697 C -864.8586 -66.43246 -810.5677 -97.42588 -774.4103 -135.77098" marker-end="url(#StickArrow_Marker)" stroke="#ef5ba1" stroke-linecap="round" stroke-linejoin="round" stroke-width="2"/>
      </g>
      <g id="Graphic_19">
        <rect x="-945" y="-175" width="74" height="47.5" stroke="black" stroke-linecap="round" stroke-linejoin="round" stroke-width="2"/>
      </g>
      <g id="Line_20">
        <line x1="-908" y1="-82.5" x2="-908" y2="-110.1" marker-end="url(#UMLInheritance_Marker)" stroke="#808285" stroke-linecap="round" stroke-linejoin="round" stroke-width="2"/>
      </g>
      <g id="Graphic_22">
        <rect x="-945" y="-82.5" width="74" height="47.5" stroke="#808285" stroke-linecap="round" stroke-linejoin="round" stroke-width="2"/>
      </g>
      <g id="Graphic_24">
        <path d="M -947.5 -167 C -943.125 -167 -930 -167 -930 -156 C -930 -145 -943.125 -145 -947.5 -145 C -951.875 -145 -947.5 -145 -947.5 -145 C -950.398 -145 -965 -145 -965 -156 C -965 -167 -951.875 -167 -947.5 -167 Z" fill="white"/>
        <path d="M -947.5 -167 C -943.125 -167 -930 -167 -930 -156 C -930 -145 -943.125 -145 -947.5 -145 C -951.875 -145 -947.5 -145 -947.5 -145 C -950.398 -145 -965 -145 -965 -156 C -965 -167 -951.875 -167 -947.5 -167 Z" stroke="black" stroke-linecap="round" stroke-linejoin="round" stroke-width="2"/>
      </g>
      <g id="Graphic_25">
        <path d="M -942.5 -75 C -938.125 -75 -925 -75 -925 -64 C -925 -53 -938.125 -53 -942.5 -53 C -946.875 -53 -942.5 -53 -942.5 -53 C -945.398 -53 -960 -53 -960 -64 C -960 -75 -946.875 -75 -942.5 -75 Z" fill="white"/>
        <path d="M -942.5 -75 C -938.125 -75 -925 -75 -925 -64 C -925 -53 -938.125 -53 -942.5 -53 C -946.875 -53 -942.5 -53 -942.5 -53 C -945.398 -53 -960 -53 -960 -64 C -960 -75 -946.875 -75 -942.5 -75 Z" stroke="#808285" stroke-linecap="round" stroke-linejoin="round" stroke-width="2"/>
      </g>
      <g id="Graphic_29">
        <rect x="-759" y="-175" width="74" height="47.5" stroke="#26bdcf" stroke-linecap="round" stroke-linejoin="round" stroke-width="2"/>
      </g>
      <g id="Graphic_30">
        <path d="M -757.5 -167 C -753.125 -167 -740 -167 -740 -156 C -740 -145 -753.125 -145 -757.5 -145 C -761.875 -145 -757.5 -145 -757.5 -145 C -760.398 -145 -775 -145 -775 -156 C -775 -167 -761.875 -167 -757.5 -167 Z" fill="white"/>
        <path d="M -757.5 -167 C -753.125 -167 -740 -167 -740 -156 C -740 -145 -753.125 -145 -757.5 -145 C -761.875 -145 -757.5 -145 -757.5 -145 C -760.398 -145 -775 -145 -775 -156 C -775 -167 -761.875 -167 -757.5 -167 Z" stroke="#26bdcf" stroke-linecap="round" stroke-linejoin="round" stroke-width="2"/>
      </g>
      <g id="Line_31">
        <line x1="-930" y1="-156" x2="-788.4" y2="-156" marker-end="url(#StickArrow_Marker_2)" stroke="#26bdcf" stroke-linecap="round" stroke-linejoin="round" stroke-dasharray="8.0,8.0" stroke-width="2"/>
      </g>
    </g>
  </g>
</svg>
