<?xml version="1.0" encoding="UTF-8" standalone="no"?>
<!DOCTYPE svg PUBLIC "-//W3C//DTD SVG 1.1//EN" "http://www.w3.org/Graphics/SVG/1.1/DTD/svg11.dtd">
<svg xmlns:dc="http://purl.org/dc/elements/1.1/" xmlns:xl="http://www.w3.org/1999/xlink" version="1.1" xmlns="http://www.w3.org/2000/svg" viewBox="-810 -115 221 242" width="221" height="242">
  <defs>
    <marker orient="auto" overflow="visible" markerUnits="strokeWidth" id="SharpArrow_Marker" stroke-linejoin="miter" stroke-miterlimit="10" viewBox="-3 -3 6 6" markerWidth="6" markerHeight="6" color="black">
      <g>
        <path d="M 2 0 L -1.2 -1.2 L 0 0 L 0 0 L -1.2 1.2 Z" fill="currentColor" stroke="currentColor" stroke-width="1"/>
      </g>
    </marker>
    <marker orient="auto" overflow="visible" markerUnits="strokeWidth" id="StickArrow_Marker" stroke-linejoin="miter" stroke-miterlimit="10" viewBox="-1 -3 7 6" markerWidth="7" markerHeight="6" color="#ef5ba1">
      <g>
        <path d="M 4.8 0 L 0 0 M 0 -1.8 L 4.8 0 L 0 1.8" fill="none" stroke="currentColor" stroke-width="1"/>
      </g>
    </marker>
    <marker orient="auto" overflow="visible" markerUnits="strokeWidth" id="SharpArrow_Marker_2" stroke-linejoin="miter" stroke-miterlimit="10" viewBox="-3 -3 6 6" markerWidth="6" markerHeight="6" color="#26bdcf">
      <g>
        <path d="M 2 0 L -1.2 -1.2 L 0 0 L 0 0 L -1.2 1.2 Z" fill="currentColor" stroke="currentColor" stroke-width="1"/>
      </g>
    </marker>
  </defs>
  <metadata> Produced by OmniGraffle 7.8.1 
    <dc:date>2017-11-20 19:00:29 +0000</dc:date>
  </metadata>
  <g id="Canvas_1" fill-opacity="1" stroke-dasharray="none" stroke="none" stroke-opacity="1" fill="none">
    <title>Canvas 1</title>
    <rect fill="white" x="-810" y="-115" width="221" height="242"/>
    <g id="Canvas_1: Layer 1">
      <title>Layer 1</title>
      <g id="Graphic_7">
        <rect x="-775" y="-77.5" width="105" height="10" fill="black"/>
      </g>
      <g id="Line_6">
        <path d="M -735 1 L -795 1 L -795 -85.9" marker-end="url(#SharpArrow_Marker)" stroke="black" stroke-linecap="round" stroke-linejoin="round" stroke-width="4"/>
      </g>
      <g id="Line_3">
        <path d="M -763.2303 -20 C -585.2471 -15.394531 -566.961 78.29438 -610.6886 96.95832" marker-end="url(#StickArrow_Marker)" stroke="#ef5ba1" stroke-linecap="round" stroke-linejoin="round" stroke-width="2"/>
      </g>
      <g id="Graphic_12">
        <path d="M -775 -60 L -767.5 -45 L -760 -60 Z" fill="black"/>
      </g>
      <g id="Graphic_13">
        <rect x="-730" y="-60" width="105" height="15" fill="black"/>
      </g>
      <g id="Graphic_14">
        <path d="M -735 -48.75 L -735 -56.25 L -745 -56.25 L -745 -60 L -755 -52.5 L -745 -45 L -745 -48.75 Z" fill="black"/>
      </g>
      <g id="Group_24">
        <g id="Graphic_23">
          <path d="M -772.5 95 L -765.3671 100.18238 L -768.0916 108.56762 L -776.9084 108.56762 L -779.6329 100.18238 Z" fill="#26bdcf"/>
        </g>
        <g id="Graphic_22">
          <rect x="-735" y="95" width="105" height="15" fill="#26bdcf"/>
        </g>
        <g id="Graphic_21">
          <path d="M -740 106.25 L -740 98.75 L -750 98.75 L -750 95 L -760 102.5 L -750 110 L -750 106.25 Z" fill="#26bdcf"/>
        </g>
      </g>
      <g id="Graphic_18">
        <rect x="-795" y="-115" width="155" height="10" fill="black"/>
      </g>
      <g id="Line_19">
        <path d="M -740 125 L -800 125 L -800 84.1" marker-end="url(#SharpArrow_Marker_2)" stroke="#26bdcf" stroke-linecap="round" stroke-linejoin="round" stroke-width="4"/>
      </g>
      <g id="Graphic_20">
        <rect x="-800" y="55" width="155" height="10" fill="#26bdcf"/>
      </g>
    </g>
  </g>
</svg>
