<?xml version="1.0" encoding="UTF-8" standalone="no"?>
<!DOCTYPE svg PUBLIC "-//W3C//DTD SVG 1.1//EN" "http://www.w3.org/Graphics/SVG/1.1/DTD/svg11.dtd">
<svg xmlns:dc="http://purl.org/dc/elements/1.1/" xmlns:xl="http://www.w3.org/1999/xlink" version="1.1" xmlns="http://www.w3.org/2000/svg" viewBox="-900 -41 196 157" width="196" height="157">
  <defs>
    <marker orient="auto" overflow="visible" markerUnits="strokeWidth" id="StickArrow_Marker" stroke-linejoin="miter" stroke-miterlimit="10" viewBox="-1 -3 7 6" markerWidth="7" markerHeight="6" color="#ef5ba1">
      <g>
        <path d="M 4.8 0 L 0 0 M 0 -1.8 L 4.8 0 L 0 1.8" fill="none" stroke="currentColor" stroke-width="1"/>
      </g>
    </marker>
    <marker orient="auto" overflow="visible" markerUnits="strokeWidth" id="StickArrow_Marker_2" stroke-linejoin="miter" stroke-miterlimit="10" viewBox="-1 -3 7 6" markerWidth="7" markerHeight="6" color="#26bdcf">
      <g>
        <path d="M 4.8 0 L 0 0 M 0 -1.8 L 4.8 0 L 0 1.8" fill="none" stroke="currentColor" stroke-width="1"/>
      </g>
    </marker>
  </defs>
  <metadata> Produced by OmniGraffle 7.8.1 
    <dc:date>2017-11-21 14:28:35 +0000</dc:date>
  </metadata>
  <g id="Canvas_1" fill-opacity="1" stroke-dasharray="none" stroke="none" stroke-opacity="1" fill="none">
    <title>Canvas 1</title>
    <rect fill="white" x="-900" y="-41" width="196" height="157"/>
    <g id="Canvas_1: Layer 1">
      <title>Layer 1</title>
      <g id="Graphic_5">
        <path d="M -730 -40 C -723.75 -40 -705 -40 -705 -27.5 C -705 -15 -723.75 -15 -730 -15 C -736.25 -15 -730 -15 -730 -15 C -734.14 -15 -755 -15 -755 -27.5 C -755 -40 -736.25 -40 -730 -40 Z" fill="white"/>
        <path d="M -730 -40 C -723.75 -40 -705 -40 -705 -27.5 C -705 -15 -723.75 -15 -730 -15 C -736.25 -15 -730 -15 -730 -15 C -734.14 -15 -755 -15 -755 -27.5 C -755 -40 -736.25 -40 -730 -40 Z" stroke="#26bdcf" stroke-linecap="round" stroke-linejoin="round" stroke-width="2"/>
      </g>
      <g id="Line_4">
        <path d="M -825 -30 L -815 -30 L -815 10 L -825 10" stroke="#ef5ba1" stroke-linecap="round" stroke-linejoin="round" stroke-width="2"/>
      </g>
      <g id="Line_3">
        <path d="M -815 -11.42446 C -805.2803 -25.680018 -789.2624 -29.260406 -768.3068 -29.33444" marker-end="url(#StickArrow_Marker)" stroke="#ef5ba1" stroke-linecap="round" stroke-linejoin="round" stroke-width="2"/>
      </g>
      <g id="Graphic_26">
        <path d="M -730 90 C -723.75 90 -705 90 -705 102.5 C -705 115 -723.75 115 -730 115 C -736.25 115 -730 115 -730 115 C -734.14 115 -755 115 -755 102.5 C -755 90 -736.25 90 -730 90 Z" fill="white"/>
        <path d="M -730 90 C -723.75 90 -705 90 -705 102.5 C -705 115 -723.75 115 -730 115 C -736.25 115 -730 115 -730 115 C -734.14 115 -755 115 -755 102.5 C -755 90 -736.25 90 -730 90 Z" stroke="#26bdcf" stroke-linecap="round" stroke-linejoin="round" stroke-width="2"/>
      </g>
      <g id="Graphic_27">
        <rect x="-755" y="20" width="50" height="25" fill="white"/>
        <rect x="-755" y="20" width="50" height="25" stroke="#26bdcf" stroke-linecap="round" stroke-linejoin="round" stroke-width="2"/>
      </g>
      <g id="Line_29">
        <line x1="-730" y1="-10" x2="-730" y2="2.1" marker-end="url(#StickArrow_Marker_2)" stroke="#26bdcf" stroke-linecap="round" stroke-linejoin="round" stroke-width="2"/>
      </g>
      <g id="Line_30">
        <line x1="-730" y1="55" x2="-730" y2="67.1" marker-end="url(#StickArrow_Marker_2)" stroke="#26bdcf" stroke-linecap="round" stroke-linejoin="round" stroke-width="2"/>
      </g>
      <g id="Line_31">
        <path d="M -829 20 C -779.6582 24.146368 -781.8935 48.92357 -752.7292 81.50016" marker-end="url(#StickArrow_Marker)" stroke="#ef5ba1" stroke-linecap="round" stroke-linejoin="round" stroke-width="2"/>
      </g>
      <g id="Graphic_32">
        <rect x="-900" y="-30" width="71" height="10" fill="#808285"/>
      </g>
      <g id="Graphic_33">
        <rect x="-890" y="-15" width="61" height="10" fill="#808285"/>
      </g>
      <g id="Graphic_34">
        <rect x="-900" y="0" width="71" height="10" fill="#808285"/>
      </g>
      <g id="Graphic_35">
        <rect x="-900" y="15" width="71" height="10" fill="#808285"/>
      </g>
      <g id="Graphic_36">
        <rect x="-890" y="30" width="61" height="10" fill="#808285"/>
      </g>
      <g id="Graphic_37">
        <rect x="-900" y="45" width="71" height="10" fill="#808285"/>
      </g>
      <g id="Line_38">
        <path d="M -829 35 C -805.9069 1.0395305 -789.2723 -12.161296 -766.8762 -19.485966" marker-end="url(#StickArrow_Marker)" stroke="#ef5ba1" stroke-linecap="round" stroke-linejoin="round" stroke-width="2"/>
      </g>
      <g id="Line_39">
        <path d="M -829 50 C -780.8837 54.043386 -778.5445 58.08677 -752.9686 81.96172" marker-end="url(#StickArrow_Marker)" stroke="#ef5ba1" stroke-linecap="round" stroke-linejoin="round" stroke-width="2"/>
      </g>
    </g>
  </g>
</svg>
