<?xml version="1.0" encoding="UTF-8" standalone="no"?>
<!DOCTYPE svg PUBLIC "-//W3C//DTD SVG 1.1//EN" "http://www.w3.org/Graphics/SVG/1.1/DTD/svg11.dtd">
<svg xmlns:dc="http://purl.org/dc/elements/1.1/" xmlns:xl="http://www.w3.org/1999/xlink" version="1.1" xmlns="http://www.w3.org/2000/svg" viewBox="-391 -191 218 122" width="218" height="122">
  <defs>
    <marker orient="auto" overflow="visible" markerUnits="strokeWidth" id="StickArrow_Marker" stroke-linejoin="miter" stroke-miterlimit="10" viewBox="-1 -3 7 6" markerWidth="7" markerHeight="6" color="#ef5ba1">
      <g>
        <path d="M 4.8 0 L 0 0 M 0 -1.8 L 4.8 0 L 0 1.8" fill="none" stroke="currentColor" stroke-width="1"/>
      </g>
    </marker>
    <marker orient="auto" overflow="visible" markerUnits="strokeWidth" id="StickArrow_Marker_2" stroke-linejoin="miter" stroke-miterlimit="10" viewBox="-1 -3 7 6" markerWidth="7" markerHeight="6" color="#808285">
      <g>
        <path d="M 4.8 0 L 0 0 M 0 -1.8 L 4.8 0 L 0 1.8" fill="none" stroke="currentColor" stroke-width="1"/>
      </g>
    </marker>
    <marker orient="auto" overflow="visible" markerUnits="strokeWidth" id="StickArrow_Marker_3" stroke-linejoin="miter" stroke-miterlimit="10" viewBox="-1 -3 7 6" markerWidth="7" markerHeight="6" color="#26bdcf">
      <g>
        <path d="M 4.8 0 L 0 0 M 0 -1.8 L 4.8 0 L 0 1.8" fill="none" stroke="currentColor" stroke-width="1"/>
      </g>
    </marker>
  </defs>
  <metadata> Produced by OmniGraffle 7.8.1 
    <dc:date>2017-11-26 14:54:17 +0000</dc:date>
  </metadata>
  <g id="Canvas_1" fill-opacity="1" stroke-dasharray="none" stroke="none" stroke-opacity="1" fill="none">
    <title>Canvas 1</title>
    <rect fill="white" x="-391" y="-191" width="218" height="122"/>
    <g id="Canvas_1: Layer 1">
      <title>Layer 1</title>
      <g id="Graphic_22">
        <rect x="-390" y="-190" width="90" height="120" stroke="#26bdcf" stroke-linecap="round" stroke-linejoin="round" stroke-width="2"/>
      </g>
      <g id="Graphic_21">
        <path d="M -300 -180 C -296.25 -180 -285 -180 -285 -172.5 C -285 -165 -296.25 -165 -300 -165 C -303.75 -165 -300 -165 -300 -165 C -302.484 -165 -315 -165 -315 -172.5 C -315 -180 -303.75 -180 -300 -180 Z" fill="white"/>
        <path d="M -300 -180 C -296.25 -180 -285 -180 -285 -172.5 C -285 -165 -296.25 -165 -300 -165 C -303.75 -165 -300 -165 -300 -165 C -302.484 -165 -315 -165 -315 -172.5 C -315 -180 -303.75 -180 -300 -180 Z" stroke="#26bdcf" stroke-linecap="round" stroke-linejoin="round" stroke-width="2"/>
      </g>
      <g id="Graphic_20">
        <path d="M -300 -155 C -296.25 -155 -285 -155 -285 -147.5 C -285 -140 -296.25 -140 -300 -140 C -303.75 -140 -300 -140 -300 -140 C -302.484 -140 -315 -140 -315 -147.5 C -315 -155 -303.75 -155 -300 -155 Z" fill="white"/>
        <path d="M -300 -155 C -296.25 -155 -285 -155 -285 -147.5 C -285 -140 -296.25 -140 -300 -140 C -303.75 -140 -300 -140 -300 -140 C -302.484 -140 -315 -140 -315 -147.5 C -315 -155 -303.75 -155 -300 -155 Z" stroke="#26bdcf" stroke-linecap="round" stroke-linejoin="round" stroke-width="2"/>
      </g>
      <g id="Line_18">
        <path d="M -320 -110.92308 C -284.61523 -90.53903 -261.5967 -110.91601 -260.66834 -127.84758" marker-end="url(#StickArrow_Marker)" stroke="#ef5ba1" stroke-linecap="round" stroke-linejoin="round" stroke-width="2"/>
      </g>
      <g id="Group_13">
        <g id="Graphic_17">
          <rect x="-375" y="-125" width="10" height="10" fill="white"/>
          <rect x="-375" y="-125" width="10" height="10" stroke="black" stroke-linecap="round" stroke-linejoin="round" stroke-width="2"/>
        </g>
        <g id="Graphic_16">
          <rect x="-365" y="-125" width="10" height="10" fill="white"/>
          <rect x="-365" y="-125" width="10" height="10" stroke="black" stroke-linecap="round" stroke-linejoin="round" stroke-width="2"/>
        </g>
        <g id="Graphic_15">
          <rect x="-355" y="-125" width="10" height="10" fill="white"/>
          <rect x="-355" y="-125" width="10" height="10" stroke="black" stroke-linecap="round" stroke-linejoin="round" stroke-width="2"/>
        </g>
        <g id="Graphic_14">
          <rect x="-345" y="-125" width="10" height="10" fill="white"/>
          <rect x="-345" y="-125" width="10" height="10" stroke="black" stroke-linecap="round" stroke-linejoin="round" stroke-width="2"/>
        </g>
      </g>
      <g id="Group_3">
        <g id="Line_12">
          <line x1="-174.23077" y1="-155" x2="-205" y2="-155" stroke="black" stroke-linecap="round" stroke-linejoin="round" stroke-width="2"/>
        </g>
        <g id="Line_11">
          <line x1="-174.23077" y1="-149.61538" x2="-205" y2="-149.61538" stroke="black" stroke-linecap="round" stroke-linejoin="round" stroke-width="2"/>
        </g>
        <g id="Line_10">
          <line x1="-174.23077" y1="-144.23077" x2="-205" y2="-144.23077" stroke="black" stroke-linecap="round" stroke-linejoin="round" stroke-width="2"/>
        </g>
        <g id="Line_9">
          <line x1="-180.38462" y1="-138.84615" x2="-205" y2="-138.84615" stroke="black" stroke-linecap="round" stroke-linejoin="round" stroke-width="2"/>
        </g>
        <g id="Line_8">
          <line x1="-180.38462" y1="-133.46154" x2="-205" y2="-133.46154" stroke="black" stroke-linecap="round" stroke-linejoin="round" stroke-width="2"/>
        </g>
        <g id="Line_7">
          <line x1="-174.23077" y1="-128.07692" x2="-205" y2="-128.07692" stroke="black" stroke-linecap="round" stroke-linejoin="round" stroke-width="2"/>
        </g>
        <g id="Line_6">
          <line x1="-174.23077" y1="-122.69231" x2="-205" y2="-122.69231" stroke="black" stroke-linecap="round" stroke-linejoin="round" stroke-width="2"/>
        </g>
        <g id="Line_5">
          <line x1="-180.38462" y1="-117.30769" x2="-205" y2="-117.30769" stroke="black" stroke-linecap="round" stroke-linejoin="round" stroke-width="2"/>
        </g>
        <g id="Line_4">
          <line x1="-174.23077" y1="-111.92308" x2="-205" y2="-111.92308" stroke="black" stroke-linecap="round" stroke-linejoin="round" stroke-width="2"/>
        </g>
      </g>
      <g id="Line_24">
        <line x1="-220" y1="-120" x2="-321.6" y2="-120" marker-end="url(#StickArrow_Marker_2)" stroke="#808285" stroke-linecap="round" stroke-linejoin="round" stroke-width="2"/>
      </g>
      <g id="Line_25">
        <line x1="-220" y1="-147.5" x2="-271.6" y2="-147.5" marker-end="url(#StickArrow_Marker_3)" stroke="#26bdcf" stroke-linecap="round" stroke-linejoin="round" stroke-width="2"/>
      </g>
    </g>
  </g>
</svg>
