<?xml version="1.0" encoding="UTF-8" standalone="no"?>
<!DOCTYPE svg PUBLIC "-//W3C//DTD SVG 1.1//EN" "http://www.w3.org/Graphics/SVG/1.1/DTD/svg11.dtd">
<svg xmlns:dc="http://purl.org/dc/elements/1.1/" xmlns:xl="http://www.w3.org/1999/xlink" version="1.1" xmlns="http://www.w3.org/2000/svg" viewBox="-896 -176 162 167" width="162" height="167">
  <defs>
    <marker orient="auto" overflow="visible" markerUnits="strokeWidth" id="StickArrow_Marker" stroke-linejoin="miter" stroke-miterlimit="10" viewBox="-1 -3 7 6" markerWidth="7" markerHeight="6" color="#26bdcf">
      <g>
        <path d="M 4.8 0 L 0 0 M 0 -1.8 L 4.8 0 L 0 1.8" fill="none" stroke="currentColor" stroke-width="1"/>
      </g>
    </marker>
    <marker orient="auto" overflow="visible" markerUnits="strokeWidth" id="StickArrow_Marker_2" stroke-linejoin="miter" stroke-miterlimit="10" viewBox="-1 -3 7 6" markerWidth="7" markerHeight="6" color="#808285">
      <g>
        <path d="M 4.8 0 L 0 0 M 0 -1.8 L 4.8 0 L 0 1.8" fill="none" stroke="currentColor" stroke-width="1"/>
      </g>
    </marker>
    <marker orient="auto" overflow="visible" markerUnits="strokeWidth" id="StickArrow_Marker_3" stroke-linejoin="miter" stroke-miterlimit="10" viewBox="-1 -3 7 6" markerWidth="7" markerHeight="6" color="#ef5ba1">
      <g>
        <path d="M 4.8 0 L 0 0 M 0 -1.8 L 4.8 0 L 0 1.8" fill="none" stroke="currentColor" stroke-width="1"/>
      </g>
    </marker>
  </defs>
  <metadata> Produced by OmniGraffle 7.8.1 
    <dc:date>2017-11-21 17:05:05 +0000</dc:date>
  </metadata>
  <g id="Canvas_1" fill-opacity="1" stroke-dasharray="none" stroke="none" stroke-opacity="1" fill="none">
    <title>Canvas 1</title>
    <rect fill="white" x="-896" y="-176" width="162" height="167"/>
    <g id="Canvas_1: Layer 1">
      <title>Layer 1</title>
      <g id="Graphic_21">
        <rect x="-799" y="-87.5" width="59" height="77.5" stroke="black" stroke-linecap="round" stroke-linejoin="round" stroke-width="2"/>
      </g>
      <g id="Graphic_20">
        <path d="M -802.5 -73.96154 C -798.125 -73.96154 -785 -73.96154 -785 -62.96154 C -785 -51.96154 -798.125 -51.96154 -802.5 -51.96154 C -806.875 -51.96154 -802.5 -51.96154 -802.5 -51.96154 C -805.398 -51.96154 -820 -51.96154 -820 -62.96154 C -820 -73.96154 -806.875 -73.96154 -802.5 -73.96154 Z" fill="white"/>
        <path d="M -802.5 -73.96154 C -798.125 -73.96154 -785 -73.96154 -785 -62.96154 C -785 -51.96154 -798.125 -51.96154 -802.5 -51.96154 C -806.875 -51.96154 -802.5 -51.96154 -802.5 -51.96154 C -805.398 -51.96154 -820 -51.96154 -820 -62.96154 C -820 -73.96154 -806.875 -73.96154 -802.5 -73.96154 Z" stroke="#26bdcf" stroke-linecap="round" stroke-linejoin="round" stroke-width="2"/>
      </g>
      <g id="Graphic_19">
        <path d="M -774 -160 L -764.25 -175 L -744.75 -175 L -735 -160 L -744.75 -145 L -764.25 -145 Z" stroke="black" stroke-linecap="round" stroke-linejoin="round" stroke-width="2"/>
      </g>
      <g id="Graphic_18">
        <rect x="-765" y="-72.96154" width="19" height="20" stroke="black" stroke-linecap="round" stroke-linejoin="round" stroke-width="2"/>
      </g>
      <g id="Line_17">
        <line x1="-860" y1="-62.96154" x2="-833.4" y2="-62.96154" marker-end="url(#StickArrow_Marker)" stroke="#26bdcf" stroke-linecap="round" stroke-linejoin="round" stroke-width="2"/>
      </g>
      <g id="Group_7">
        <g id="Line_16">
          <line x1="-864.2308" y1="-85" x2="-895" y2="-85" stroke="black" stroke-linecap="round" stroke-linejoin="round" stroke-width="2"/>
        </g>
        <g id="Line_15">
          <line x1="-864.2308" y1="-79.61538" x2="-895" y2="-79.61538" stroke="black" stroke-linecap="round" stroke-linejoin="round" stroke-width="2"/>
        </g>
        <g id="Line_14">
          <line x1="-864.2308" y1="-74.23077" x2="-895" y2="-74.23077" stroke="black" stroke-linecap="round" stroke-linejoin="round" stroke-width="2"/>
        </g>
        <g id="Line_13">
          <line x1="-870.3846" y1="-68.84615" x2="-895" y2="-68.84615" stroke="black" stroke-linecap="round" stroke-linejoin="round" stroke-width="2"/>
        </g>
        <g id="Line_12">
          <line x1="-870.3846" y1="-63.46154" x2="-895" y2="-63.46154" stroke="black" stroke-linecap="round" stroke-linejoin="round" stroke-width="2"/>
        </g>
        <g id="Line_11">
          <line x1="-864.2308" y1="-58.07692" x2="-895" y2="-58.07692" stroke="black" stroke-linecap="round" stroke-linejoin="round" stroke-width="2"/>
        </g>
        <g id="Line_10">
          <line x1="-864.2308" y1="-52.69231" x2="-895" y2="-52.69231" stroke="black" stroke-linecap="round" stroke-linejoin="round" stroke-width="2"/>
        </g>
        <g id="Line_9">
          <line x1="-870.3846" y1="-47.30769" x2="-895" y2="-47.30769" stroke="black" stroke-linecap="round" stroke-linejoin="round" stroke-width="2"/>
        </g>
        <g id="Line_8">
          <line x1="-864.2308" y1="-41.923077" x2="-895" y2="-41.923077" stroke="black" stroke-linecap="round" stroke-linejoin="round" stroke-width="2"/>
        </g>
      </g>
      <g id="Line_6">
        <line x1="-785" y1="-62.96154" x2="-778.4" y2="-62.96154" marker-end="url(#StickArrow_Marker)" stroke="#26bdcf" stroke-linecap="round" stroke-linejoin="round" stroke-width="2"/>
      </g>
      <g id="Line_5">
        <line x1="-755.39695" y1="-72.96154" x2="-754.7927" y2="-131.60068" marker-end="url(#StickArrow_Marker)" stroke="#26bdcf" stroke-linecap="round" stroke-linejoin="round" stroke-width="2"/>
      </g>
      <g id="Line_4">
        <line x1="-864.2308" y1="-70" x2="-777.5823" y2="-141.06811" marker-end="url(#StickArrow_Marker_2)" stroke="#808285" stroke-linecap="round" stroke-linejoin="round" stroke-width="2"/>
      </g>
      <g id="Line_3">
        <path d="M -780.9673 -130 C -776.87065 -117.70996 -774.9648 -98.00968 -785.8335 -83.04211" marker-end="url(#StickArrow_Marker_3)" stroke="#ef5ba1" stroke-linecap="round" stroke-linejoin="round" stroke-width="2"/>
      </g>
    </g>
  </g>
</svg>
