<?xml version="1.0" encoding="UTF-8" standalone="no"?>
<!DOCTYPE svg PUBLIC "-//W3C//DTD SVG 1.1//EN" "http://www.w3.org/Graphics/SVG/1.1/DTD/svg11.dtd">
<svg xmlns:dc="http://purl.org/dc/elements/1.1/" xmlns:xl="http://www.w3.org/1999/xlink" version="1.1" xmlns="http://www.w3.org/2000/svg" viewBox="-1114 -125 200 164" width="200" height="164">
  <defs>
    <marker orient="auto" overflow="visible" markerUnits="strokeWidth" id="StickArrow_Marker" stroke-linejoin="miter" stroke-miterlimit="10" viewBox="-1 -3 7 6" markerWidth="7" markerHeight="6" color="black">
      <g>
        <path d="M 4.8 0 L 0 0 M 0 -1.8 L 4.8 0 L 0 1.8" fill="none" stroke="currentColor" stroke-width="1"/>
      </g>
    </marker>
    <marker orient="auto" overflow="visible" markerUnits="strokeWidth" id="StickArrow_Marker_2" stroke-linejoin="miter" stroke-miterlimit="10" viewBox="-1 -3 7 6" markerWidth="7" markerHeight="6" color="#ef5ba1">
      <g>
        <path d="M 4.8 0 L 0 0 M 0 -1.8 L 4.8 0 L 0 1.8" fill="none" stroke="currentColor" stroke-width="1"/>
      </g>
    </marker>
  </defs>
  <metadata> Produced by OmniGraffle 7.8.1 
    <dc:date>2017-11-08 18:56:32 +0000</dc:date>
  </metadata>
  <g id="Canvas_1" fill-opacity="1" stroke-dasharray="none" stroke="none" stroke-opacity="1" fill="none">
    <title>Canvas 1</title>
    <rect fill="white" x="-1114" y="-125" width="200" height="164"/>
    <g id="Canvas_1: Layer 1">
      <title>Layer 1</title>
      <g id="Group_21">
        <g id="Graphic_28">
          <path d="M -1055.25 -35 L -939.75 -35 C -926.088 -35 -915 -18.669841 -915 1.4512472 C -915 21.572336 -926.088 37.902494 -939.75 37.902494 L -1055.25 37.902494 C -1068.912 37.902494 -1080 21.572336 -1080 1.4512472 C -1080 -18.669841 -1068.912 -35 -1055.25 -35 Z" fill="white"/>
          <path d="M -1055.25 -35 L -939.75 -35 C -926.088 -35 -915 -18.669841 -915 1.4512472 C -915 21.572336 -926.088 37.902494 -939.75 37.902494 L -1055.25 37.902494 C -1068.912 37.902494 -1080 21.572336 -1080 1.4512472 C -1080 -18.669841 -1068.912 -35 -1055.25 -35 Z" stroke="black" stroke-linecap="round" stroke-linejoin="round" stroke-width="2"/>
        </g>
        <g id="Graphic_32">
          <rect x="-1060" y="15" width="90" height="10" fill="black"/>
        </g>
        <g id="Group_22">
          <g id="Graphic_24">
            <rect x="-1060" y="-5" width="50" height="10" fill="black"/>
          </g>
          <g id="Graphic_23">
            <rect x="-1e3" y="-5" width="50" height="10" fill="black"/>
          </g>
        </g>
      </g>
      <g id="Graphic_20">
        <rect x="-1080" y="-125" width="90" height="10" fill="black"/>
      </g>
      <g id="Graphic_15">
        <path d="M -1065 -85 C -1061.25 -85 -1050 -85 -1050 -77.5 C -1050 -70 -1061.25 -70 -1065 -70 C -1068.75 -70 -1065 -70 -1065 -70 C -1067.484 -70 -1080 -70 -1080 -77.5 C -1080 -85 -1068.75 -85 -1065 -85 Z" fill="white"/>
        <path d="M -1065 -85 C -1061.25 -85 -1050 -85 -1050 -77.5 C -1050 -70 -1061.25 -70 -1065 -70 C -1068.75 -70 -1065 -70 -1065 -70 C -1067.484 -70 -1080 -70 -1080 -77.5 C -1080 -85 -1068.75 -85 -1065 -85 Z" stroke="black" stroke-linecap="round" stroke-linejoin="round" stroke-width="2"/>
      </g>
      <g id="Line_14">
        <path d="M -1075.6261 -71.6943 C -1098.0839 -60.07355 -1137.0608 -38.79328 -1089.9903 -4.977345" marker-end="url(#StickArrow_Marker)" stroke="black" stroke-linecap="round" stroke-linejoin="round" stroke-width="2"/>
      </g>
      <g id="Graphic_30">
        <rect x="-1080" y="-105" width="50" height="10" fill="#26bdcf"/>
      </g>
      <g id="Graphic_31">
        <rect x="-1020" y="-105" width="65" height="10" fill="#26bdcf"/>
      </g>
      <g id="Line_34">
        <path d="M -1010 -20 C -1002.1992 -43.402344 -1000.4837 -63.76208 -1008.8393 -76.33226" marker-end="url(#StickArrow_Marker_2)" stroke="#ef5ba1" stroke-linecap="round" stroke-linejoin="round" stroke-width="2"/>
      </g>
    </g>
  </g>
</svg>
