<?xml version="1.0" encoding="UTF-8" standalone="no"?>
<!DOCTYPE svg PUBLIC "-//W3C//DTD SVG 1.1//EN" "http://www.w3.org/Graphics/SVG/1.1/DTD/svg11.dtd">
<svg xmlns:dc="http://purl.org/dc/elements/1.1/" xmlns:xl="http://www.w3.org/1999/xlink" version="1.1" xmlns="http://www.w3.org/2000/svg" viewBox="-940 -201 286 162" width="286" height="162">
  <defs>
    <marker orient="auto" overflow="visible" markerUnits="strokeWidth" id="StickArrow_Marker" stroke-linejoin="miter" stroke-miterlimit="10" viewBox="-1 -3 7 6" markerWidth="7" markerHeight="6" color="#ef5ba1">
      <g>
        <path d="M 4.8 0 L 0 0 M 0 -1.8 L 4.8 0 L 0 1.8" fill="none" stroke="currentColor" stroke-width="1"/>
      </g>
    </marker>
    <marker orient="auto" overflow="visible" markerUnits="strokeWidth" id="UMLInheritance_Marker" stroke-linejoin="miter" stroke-miterlimit="10" viewBox="-1 -6 10 12" markerWidth="10" markerHeight="12" color="#808285">
      <g>
        <path d="M 7.2 0 L 0 -4.2 L 0 4.2 Z" fill="none" stroke="currentColor" stroke-width="1"/>
      </g>
    </marker>
    <marker orient="auto" overflow="visible" markerUnits="strokeWidth" id="StickArrow_Marker_2" stroke-linejoin="miter" stroke-miterlimit="10" viewBox="-1 -3 7 6" markerWidth="7" markerHeight="6" color="#26bdcf">
      <g>
        <path d="M 4.8 0 L 0 0 M 0 -1.8 L 4.8 0 L 0 1.8" fill="none" stroke="currentColor" stroke-width="1"/>
      </g>
    </marker>
  </defs>
  <metadata> Produced by OmniGraffle 7.8.1 
    <dc:date>2017-11-15 14:46:59 +0000</dc:date>
  </metadata>
  <g id="Canvas_1" fill-opacity="1" stroke-dasharray="none" stroke="none" stroke-opacity="1" fill="none">
    <title>Canvas 1</title>
    <rect fill="white" x="-940" y="-201" width="286" height="162"/>
    <g id="Canvas_1: Layer 1">
      <title>Layer 1</title>
      <g id="Line_11">
        <path d="M -865 -168.72405 C -776.2275 -163.03788 -734.8013 -139.30682 -716.21924 -109.45083" marker-end="url(#StickArrow_Marker)" stroke="#ef5ba1" stroke-linecap="round" stroke-linejoin="round" stroke-width="2"/>
      </g>
      <g id="Graphic_10">
        <rect x="-939" y="-200" width="74" height="60" stroke="#808285" stroke-linecap="round" stroke-linejoin="round" stroke-width="2"/>
      </g>
      <g id="Line_9">
        <line x1="-902" y1="-97.5" x2="-902" y2="-122.6" marker-end="url(#UMLInheritance_Marker)" stroke="#808285" stroke-linecap="round" stroke-linejoin="round" stroke-width="2"/>
      </g>
      <g id="Graphic_8">
        <rect x="-939" y="-97.5" width="74" height="57.5" stroke="black" stroke-linecap="round" stroke-linejoin="round" stroke-width="2"/>
      </g>
      <g id="Graphic_5">
        <rect x="-740" y="-97.5" width="74" height="57.5" stroke="#26bdcf" stroke-linecap="round" stroke-linejoin="round" stroke-width="2"/>
      </g>
      <g id="Graphic_12">
        <path d="M -666.5341 -89.5 C -663.6506 -89.5 -655 -89.5 -655 -82.25 C -655 -75 -663.6506 -75 -666.5341 -75 C -669.4176 -75 -666.5341 -75 -666.5341 -75 C -668.4441 -75 -678.0682 -75 -678.0682 -82.25 C -678.0682 -89.5 -669.4176 -89.5 -666.5341 -89.5 Z" fill="white"/>
        <path d="M -666.5341 -89.5 C -663.6506 -89.5 -655 -89.5 -655 -82.25 C -655 -75 -663.6506 -75 -666.5341 -75 C -669.4176 -75 -666.5341 -75 -666.5341 -75 C -668.4441 -75 -678.0682 -75 -678.0682 -82.25 C -678.0682 -89.5 -669.4176 -89.5 -666.5341 -89.5 Z" stroke="#26bdcf" stroke-linecap="round" stroke-linejoin="round" stroke-width="2"/>
      </g>
      <g id="Line_13">
        <line x1="-865" y1="-68.75" x2="-753.4" y2="-68.75" marker-end="url(#StickArrow_Marker_2)" stroke="#26bdcf" stroke-linecap="round" stroke-linejoin="round" stroke-dasharray="8.0,8.0" stroke-width="2"/>
      </g>
      <g id="Graphic_14">
        <path d="M -866.5341 -89.5 C -863.6506 -89.5 -855 -89.5 -855 -82.25 C -855 -75 -863.6506 -75 -866.5341 -75 C -869.4176 -75 -866.5341 -75 -866.5341 -75 C -868.4441 -75 -878.0682 -75 -878.0682 -82.25 C -878.0682 -89.5 -869.4176 -89.5 -866.5341 -89.5 Z" fill="white"/>
        <path d="M -866.5341 -89.5 C -863.6506 -89.5 -855 -89.5 -855 -82.25 C -855 -75 -863.6506 -75 -866.5341 -75 C -869.4176 -75 -866.5341 -75 -866.5341 -75 C -868.4441 -75 -878.0682 -75 -878.0682 -82.25 C -878.0682 -89.5 -869.4176 -89.5 -866.5341 -89.5 Z" stroke="black" stroke-linecap="round" stroke-linejoin="round" stroke-width="2"/>
      </g>
      <g id="Graphic_15">
        <path d="M -866.5341 -194.5 C -863.6506 -194.5 -855 -194.5 -855 -187.25 C -855 -180 -863.6506 -180 -866.5341 -180 C -869.4176 -180 -866.5341 -180 -866.5341 -180 C -868.4441 -180 -878.0682 -180 -878.0682 -187.25 C -878.0682 -194.5 -869.4176 -194.5 -866.5341 -194.5 Z" fill="white"/>
        <path d="M -866.5341 -194.5 C -863.6506 -194.5 -855 -194.5 -855 -187.25 C -855 -180 -863.6506 -180 -866.5341 -180 C -869.4176 -180 -866.5341 -180 -866.5341 -180 C -868.4441 -180 -878.0682 -180 -878.0682 -187.25 C -878.0682 -194.5 -869.4176 -194.5 -866.5341 -194.5 Z" stroke="#808285" stroke-linecap="round" stroke-linejoin="round" stroke-width="2"/>
      </g>
    </g>
  </g>
</svg>
