<?xml version="1.0" encoding="UTF-8" standalone="no"?>
<!DOCTYPE svg PUBLIC "-//W3C//DTD SVG 1.1//EN" "http://www.w3.org/Graphics/SVG/1.1/DTD/svg11.dtd">
<svg xmlns:dc="http://purl.org/dc/elements/1.1/" xmlns:xl="http://www.w3.org/1999/xlink" version="1.1" xmlns="http://www.w3.org/2000/svg" viewBox="-636 -106 337 112" width="337" height="112">
  <defs>
    <marker orient="auto" overflow="visible" markerUnits="strokeWidth" id="StickArrow_Marker" stroke-linejoin="miter" stroke-miterlimit="10" viewBox="-1 -3 7 6" markerWidth="7" markerHeight="6" color="#ef5ba1">
      <g>
        <path d="M 4.8 0 L 0 0 M 0 -1.8 L 4.8 0 L 0 1.8" fill="none" stroke="currentColor" stroke-width="1"/>
      </g>
    </marker>
    <marker orient="auto" overflow="visible" markerUnits="strokeWidth" id="StickArrow_Marker_2" stroke-linejoin="miter" stroke-miterlimit="10" viewBox="-1 -3 7 6" markerWidth="7" markerHeight="6" color="black">
      <g>
        <path d="M 4.8 0 L 0 0 M 0 -1.8 L 4.8 0 L 0 1.8" fill="none" stroke="currentColor" stroke-width="1"/>
      </g>
    </marker>
  </defs>
  <metadata> Produced by OmniGraffle 7.8.1 
    <dc:date>2017-11-26 15:13:49 +0000</dc:date>
  </metadata>
  <g id="Canvas_1" fill-opacity="1" stroke-dasharray="none" stroke="none" stroke-opacity="1" fill="none">
    <title>Canvas 1</title>
    <rect fill="white" x="-636" y="-106" width="337" height="112"/>
    <g id="Canvas_1: Layer 1">
      <title>Layer 1</title>
      <g id="Graphic_9">
        <path d="M -342.5 -90 C -331.875 -90 -300 -90 -300 -72.5 C -300 -55 -331.875 -55 -342.5 -55 C -353.125 -55 -342.5 -55 -342.5 -55 C -349.538 -55 -385 -55 -385 -72.5 C -385 -90 -353.125 -90 -342.5 -90 Z" fill="white"/>
        <path d="M -342.5 -90 C -331.875 -90 -300 -90 -300 -72.5 C -300 -55 -331.875 -55 -342.5 -55 C -353.125 -55 -342.5 -55 -342.5 -55 C -349.538 -55 -385 -55 -385 -72.5 C -385 -90 -353.125 -90 -342.5 -90 Z" stroke="#26bdcf" stroke-linecap="round" stroke-linejoin="round" stroke-width="2"/>
      </g>
      <g id="Graphic_8">
        <rect x="-635" y="-50" width="40" height="25" fill="white"/>
        <rect x="-635" y="-50" width="40" height="25" stroke="black" stroke-linecap="round" stroke-linejoin="round" stroke-width="2"/>
      </g>
      <g id="Graphic_7">
        <path d="M -345 -90 L -345 -70 L -335 -70 L -335 -90 L -335 -96.76322 L -335 -100 L -350 -100 L -350 -105 L -370 -95 L -350 -85 L -350 -90 Z" fill="white"/>
        <path d="M -345 -90 L -345 -70 L -335 -70 L -335 -90 L -335 -96.76322 L -335 -100 L -350 -100 L -350 -105 L -370 -95 L -350 -85 L -350 -90 Z" stroke="#26bdcf" stroke-linecap="round" stroke-linejoin="round" stroke-width="2"/>
      </g>
      <g id="Graphic_6">
        <path d="M -480 -65 C -465 -65 -420 -65 -420 -30 C -420 5 -465 5 -480 5 C -495 5 -480 5 -480 5 C -489.936 5 -540 5 -540 -30 C -540 -65 -495 -65 -480 -65 Z" fill="white"/>
        <path d="M -480 -65 C -465 -65 -420 -65 -420 -30 C -420 5 -465 5 -480 5 C -495 5 -480 5 -480 5 C -489.936 5 -540 5 -540 -30 C -540 -65 -495 -65 -480 -65 Z" stroke="black" stroke-linecap="round" stroke-linejoin="round" stroke-width="2"/>
      </g>
      <g id="Line_4">
        <path d="M -485 -11.763222 C -462.8003 -10.197502 -405.11704 -25.792586 -374.9682 -46.81088" marker-end="url(#StickArrow_Marker)" stroke="#ef5ba1" stroke-linecap="round" stroke-linejoin="round" stroke-width="2"/>
      </g>
      <g id="Graphic_3">
        <rect x="-515" y="-42.5" width="60" height="10" fill="black"/>
      </g>
      <g id="Line_10">
        <line x1="-515" y1="-37.5" x2="-581.6" y2="-37.5" marker-end="url(#StickArrow_Marker_2)" stroke="black" stroke-linecap="round" stroke-linejoin="round" stroke-width="2"/>
      </g>
    </g>
  </g>
</svg>
